<?xml version="1.0" encoding="UTF-8"?>
<svg id="Layer_1" data-name="Layer 1" xmlns="http://www.w3.org/2000/svg" viewBox="0 0 960.12 340.16">
  <defs>
    <style>
      .cls-1 {
        fill: #040000;
      }
    </style>
  </defs>
  <g id="Anjin_black" data-name="Anjin black">
    <g>
      <path class="cls-1" d="M71.02,179.16c7.52-1.09,24.12-2.9,32.21-4.03v-11.72l-31.91,4.46s-8.96-25.8,8.22-51.98c6.67-.95,14.91-2.11,23.69-3.34v-14.68c0-3.81,3.09-6.9,6.9-6.9s6.9,3.09,6.9,6.9v12.75c11.36-1.59,22.75-3.19,32.21-4.53-6.15,17.69-3.39,33.09-.5,42.09,2.66-5,6.13-10,10.66-14.92,11.11-1.6,24.52-3.51,38.44-5.48v-12.4l-35.44,4.99s-13.56-31.34,8.49-60.71c7.52-1.07,16.9-2.44,26.95-3.89v-12.27c0-4.41,3.57-7.98,7.98-7.98s7.98,3.57,7.98,7.98v9.97c13.72-1.96,27.55-3.9,38.79-5.34-14.5,31.9,3.1,59.11,3.1,59.11l-41.89,5.89v12.39c18.97-2.67,37.66-5.27,51.68-7.2-23.44,37.16-3,72.22,10.35,83.26-1.24.19-32.04,4.57-62.03,8.8v17.05c15.09-1.3,31.53-4.54,47.51-10.36,34.34-12.5,65.02-40.94,78.13-62.65-1.69-18.34-6.34-36.03-13.55-52.48C304.01,52,258.53,13.45,200.87,2.84,108.51-14.16,19.85,46.93,2.85,139.3c-2.34,12.72-8.05,50.4,8.76,92.46,8.14-4.49,21.99-11.6,39.61-15.78.78-9.88,5.92-25.66,19.81-36.82Z"/>
      <path class="cls-1" d="M142,169.74c.45-3.96,1.3-8.02,2.67-12.13l-27.63,3.86v11.72c8.45-1.18,16.88-2.34,24.97-3.46Z"/>
      <path class="cls-1" d="M159.21,223.48c.4.13.79.27,1.2.4,7.08,2.4,20.72,4.42,37.45,4.3v-15.55c-21.29,3-39.1,5.48-41.07,5.69.74,1.81,1.56,3.53,2.43,5.16Z"/>
      <path class="cls-1" d="M255.64,235.7c-30.61,10.2-70.05,11.92-100.03,1.52-38.72-13.43-74.61-18.93-124.22-2.14-5.18,1.75-10.44,4.07-15.52,6.65,22.46,48.23,67.14,85.22,123.45,95.59,92.36,17,181.02-44.1,198.02-136.46,1.72-9.34,2.63-18.64,2.8-27.84-29.51,40.24-65.14,56.24-84.49,62.68Z"/>
    </g>
    <g>
      <path class="cls-1" d="M494.07,91.57l63.25,156.74h-44.36l-11.68-31.72h-62.4l-11.89,31.72h-44.36l63.46-156.74h47.97ZM449.07,189.25h42.24l-21.01-57.23-21.22,57.23Z"/>
      <path class="cls-1" d="M692,177.76v70.56h-40.45v-63.43c0-14.71-5.51-22.29-16.55-22.29-8.73,0-16.09,5.06-24.59,18.16v67.57h-40.45v-115.15h40.45v16.55c11.95-13.1,24.13-18.61,40.45-18.61,30.57,0,41.14,20.22,41.14,46.66Z"/>
      <path class="cls-1" d="M754.11,133.17v138.08c0,28.96-19.31,46.89-43.9,47.58l-13.56-31.03c12.64-4.14,17-9.88,17-25.05v-129.58h40.45Z"/>
      <path class="cls-1" d="M754.11,103.53c0,11.2-9.02,20.23-20.23,20.23s-20.23-9.02-20.23-20.23,8.75-20.5,20.23-20.5,20.23,9.29,20.23,20.5Z"/>
      <rect class="cls-1" x="775.78" y="133.17" width="40.45" height="115.14"/>
      <path class="cls-1" d="M816.23,103.53c0,11.2-9.02,20.23-20.23,20.23s-20.23-9.02-20.23-20.23,8.75-20.5,20.23-20.5,20.23,9.29,20.23,20.5Z"/>
      <path class="cls-1" d="M960.12,177.76v70.56h-40.45v-63.43c0-14.71-5.51-22.29-16.55-22.29-8.73,0-16.09,5.06-24.59,18.16v67.57h-40.45v-115.15h40.45v16.55c11.95-13.1,24.13-18.61,40.45-18.61,30.57,0,41.14,20.22,41.14,46.66Z"/>
    </g>
  </g>
</svg>