<?xml version="1.0" encoding="UTF-8"?>
<svg id="_レイヤー_2" data-name="レイヤー 2" xmlns="http://www.w3.org/2000/svg" viewBox="0 0 113.37 113.39">
  <defs>
    <style>
      .cls-1 {
        fill: #fff;
      }
    </style>
  </defs>
  <g id="_レイヤー_2-2" data-name="レイヤー 2">
    <g id="Anjin_MBT_white" data-name="Anjin MBT white">
      <g>
        <path class="cls-1" d="M85.21,78.57c-10.2,3.4-23.35,3.97-33.34.51-12.91-4.48-24.87-6.31-41.41-.71-1.73.58-3.48,1.36-5.17,2.22.77,1.66,1.62,3.27,2.54,4.84,3.6-1.59,7.33-2.71,11.81-3.6,14.95-2.96,25.95.56,36.73,4.11,3.41,1.12,33.78,7.03,56.19-19.68.49-2.88.76-5.74.81-8.58-9.84,13.41-21.71,18.75-28.16,20.89Z"/>
        <path class="cls-1" d="M108.63,33.98C101.34,17.33,86.18,4.48,66.96.95,36.17-4.72,6.62,15.64.95,46.43c-.78,4.24-2.68,16.8,2.92,30.82,2.72-1.5,7.33-3.87,13.2-5.26.26-3.29,1.97-8.55,6.6-12.27,2.51-.36,8.04-.97,10.74-1.34v-3.91l-10.64,1.49s-2.99-8.6,2.74-17.33c2.22-.32,4.97-.7,7.9-1.11v-4.89c0-1.27,1.03-2.3,2.3-2.3s2.3,1.03,2.3,2.3v4.25c3.78-.53,7.58-1.06,10.74-1.51-2.05,5.9-1.13,11.03-.17,14.03.89-1.67,2.04-3.33,3.55-4.97,3.7-.53,8.17-1.17,12.81-1.83v-4.13l-11.81,1.66s-4.52-10.45,2.83-20.24c2.51-.36,5.63-.81,8.98-1.3v-4.09c0-1.47,1.19-2.66,2.66-2.66s2.66,1.19,2.66,2.66v3.33c4.57-.65,9.18-1.3,12.93-1.78-4.83,10.63,1.03,19.7,1.03,19.7l-13.96,1.96v4.13c6.32-.89,12.55-1.76,17.23-2.4-7.81,12.39-1,24.07,3.45,27.75-.41.06-10.68,1.52-20.68,2.93v5.68c5.03-.43,10.52-1.48,15.84-3.45,3.31-1.23,6.54-2.82,9.55-4.85,8.79-5.94,12.31-9.83,16.49-16.03-.56-6.11-2.11-12.01-4.52-17.49Z"/>
        <path class="cls-1" d="M48.22,52.54l-9.21,1.29v3.91c2.82-.39,5.63-.78,8.32-1.15.15-1.32.43-2.67.89-4.04Z"/>
        <path class="cls-1" d="M52.26,72.77c.25.6.52,1.18.81,1.72.13.04.26.09.4.13,2.36.8,6.91,1.47,12.48,1.43v-5.18c-7.1,1-13.03,1.83-13.69,1.9Z"/>
        <path class="cls-1" d="M53.01,92.64c-10.69-4.23-25.5-6.02-40.59-.55,8.22,10.29,20.04,17.78,34.01,20.35,26.55,4.89,52.19-9.59,62.37-33.42-2.94,2.85-10.58,9.92-20.5,13.09-10.43,3.34-24.78,4.69-35.3.52Z"/>
      </g>
    </g>
  </g>
</svg>